<?xml version="1.0" encoding="utf-8"?>
<!-- Generator: Adobe Illustrator 26.4.1, SVG Export Plug-In . SVG Version: 6.00 Build 0)  -->
<svg version="1.1" id="Слой_1" xmlns="http://www.w3.org/2000/svg" xmlns:xlink="http://www.w3.org/1999/xlink" x="0px" y="0px"
	 viewBox="0 0 200 200" style="enable-background:new 0 0 200 200;" xml:space="preserve">
<style type="text/css">
	.st0{fill:#2F363D;}
</style>
<path class="st0" d="M82.62,4.13c-45.51,8-80.3,47.86-81.61,94.11c-0.98,34.78,12.49,63.03,40.02,84.41
	c8.17,6.35,17.3,11.05,27.13,14.32c4.25,1.41,7.22-0.73,7.23-5.17c0-5.42-0.1-10.84-0.09-16.27c0-1.22-0.2-1.67-1.59-1.36
	c-1.99,0.43-4.03,0.64-6.06,0.81c-11.86,1-22.92-3.82-26.79-15.28c-1.8-5.34-5.4-9.71-10.44-12.66c-0.87-0.51-1.65-1.22-2.34-1.96
	c-1.52-1.63-1.19-2.76,0.9-3.39c1.38-0.42,2.76-0.46,4.19-0.18c6.22,1.21,10.51,5,13.77,10.19c6.43,10.26,15.92,13.36,27.19,8.82
	c0.68-0.27,1.6-0.34,1.74-1.36c0.65-4.74,2.49-8.96,5.92-12.71c-4-0.52-7.65-1.03-11.24-1.9c-13.76-3.31-24.44-10.44-29.83-24.08
	c-2.3-5.82-3.22-11.92-3.71-18.14c-0.9-11.44,1.57-21.83,9.04-30.77c0.68-0.81,0.88-1.48,0.55-2.51c-2.31-7.2-1.88-14.4,0.17-21.57
	c1.16-4.05,1.57-4.25,5.8-3.59c7.79,1.21,14.47,4.97,20.95,9.17c1.21,0.78,2.23,1.01,3.69,0.64c15.22-3.77,30.47-3.77,45.69,0.01
	c1.35,0.34,2.34,0.22,3.48-0.55c4.09-2.78,8.4-5.2,13.01-7.03c3.44-1.37,6.97-2.4,10.72-2.45c1.2-0.02,2.02,0.24,2.48,1.6
	c2.57,7.62,3.42,15.32,1.06,23.12c-0.49,1.6-0.16,2.54,0.85,3.73c3.12,3.69,5.37,7.88,6.83,12.51c2.65,8.4,2.22,16.92,0.83,25.42
	c-2.73,16.67-11.87,27.98-28.21,33.14c-5.03,1.59-10.2,2.48-15.89,3.25c5.29,5.47,6.58,11.96,6.54,18.89
	c-0.04,8.57-0.09,17.13-0.12,25.7c-0.02,5.47,2.9,7.5,8.1,5.67c46.44-16.42,74.1-64.85,64.64-113.17
	C186.65,29.72,136.15-5.29,82.62,4.13z"/>
</svg>
