<?xml version="1.0" encoding="utf-8"?>
<!-- Generator: Adobe Illustrator 26.4.1, SVG Export Plug-In . SVG Version: 6.00 Build 0)  -->
<svg version="1.1" id="Слой_1" xmlns="http://www.w3.org/2000/svg" xmlns:xlink="http://www.w3.org/1999/xlink" x="0px" y="0px"
	 viewBox="0 0 75.17 70.24" style="enable-background:new 0 0 75.17 70.24;" xml:space="preserve">
<style type="text/css">
	.st0{fill:none;stroke:#C9CED1;stroke-miterlimit:10;}
</style>
<path class="st0" d="M31.4,6.49C17.39,8.95,6.68,21.22,6.28,35.46c-0.3,10.71,3.84,19.4,12.32,25.98c2.52,1.95,5.32,3.4,8.35,4.41
	c1.31,0.44,2.22-0.23,2.22-1.59c0-1.67-0.03-3.34-0.03-5.01c0-0.38-0.06-0.51-0.49-0.42c-0.61,0.13-1.24,0.2-1.87,0.25
	c-3.65,0.31-7.06-1.18-8.25-4.7c-0.55-1.64-1.66-2.99-3.21-3.9c-0.27-0.16-0.51-0.37-0.72-0.6c-0.47-0.5-0.37-0.85,0.28-1.04
	c0.42-0.13,0.85-0.14,1.29-0.06c1.91,0.37,3.24,1.54,4.24,3.14c1.98,3.16,4.9,4.11,8.37,2.71c0.21-0.08,0.49-0.1,0.53-0.42
	c0.2-1.46,0.77-2.76,1.82-3.91c-1.23-0.16-2.35-0.32-3.46-0.58c-4.23-1.02-7.52-3.21-9.18-7.41c-0.71-1.79-0.99-3.67-1.14-5.58
	c-0.28-3.52,0.48-6.72,2.78-9.47c0.21-0.25,0.27-0.46,0.17-0.77c-0.71-2.22-0.58-4.43,0.05-6.64c0.36-1.25,0.48-1.31,1.79-1.1
	c2.4,0.37,4.46,1.53,6.45,2.82c0.37,0.24,0.69,0.31,1.14,0.2c4.69-1.16,9.38-1.16,14.06,0c0.42,0.1,0.72,0.07,1.07-0.17
	c1.26-0.86,2.59-1.6,4-2.16c1.06-0.42,2.15-0.74,3.3-0.75c0.37-0.01,0.62,0.07,0.76,0.49c0.79,2.35,1.05,4.72,0.33,7.12
	c-0.15,0.49-0.05,0.78,0.26,1.15c0.96,1.13,1.65,2.43,2.1,3.85c0.82,2.59,0.68,5.21,0.26,7.82c-0.84,5.13-3.65,8.61-8.68,10.2
	c-1.55,0.49-3.14,0.76-4.89,1c1.63,1.68,2.02,3.68,2.01,5.81c-0.01,2.64-0.03,5.27-0.04,7.91c-0.01,1.68,0.89,2.31,2.49,1.74
	c14.29-5.05,22.81-19.96,19.9-34.83C63.42,14.36,47.87,3.59,31.4,6.49z"/>
</svg>
